<svg width="200" height="200" viewBox="0 0 64 64" xmlns="http://www.w3.org/2000/svg">
  <!-- Calendar Base -->
  <rect x="10" y="12" width="44" height="40" rx="4" ry="4" fill="#f0f0f0" stroke="#888" stroke-width="2"></rect>
  <!-- Calendar Top Rings -->
  <line x1="18" y1="10" x2="18" y2="16" stroke="#888" stroke-width="2"></line>
  <line x1="46" y1="10" x2="46" y2="16" stroke="#888" stroke-width="2"></line>
  <!-- Calendar Divider -->
  <line x1="10" y1="22" x2="54" y2="22" stroke="#bbb" stroke-width="1"></line>

  <!-- Improved Tooth Icon -->
  <path d="
    M32 26
    c-4 0 -7 3.5 -7 7.5
    c0 3.5 1.5 10 2.5 12
    c1 2 2.5 1.5 3 -0.5
    c0.3 -1.5 0.6 -4.5 1.5 -4.5
    s1.2 3 1.5 4.5
    c0.5 2 2 2.5 3 0.5
    c1 -2 2.5 -8.5 2.5 -12
    c0 -4 -3 -7.5 -7 -7.5
    z" fill="#fff" stroke="#444" stroke-width="1.5"></path>

</svg>
